<svg id="LOGO" xmlns="http://www.w3.org/2000/svg" viewBox="0 0 350.6 73.81"><defs><style>.cls-1{fill:#231f20;}.cls-2{fill:#eb0029;}</style></defs><title>GBHEM-FULL_LOGO</title><path class="cls-1" d="M48.53,39.09V21.62h3v7.12h3.19V21.62h3V39.09h-3V31.35H51.53v7.74Z" transform="translate(-4.67 -3.55)"/><path class="cls-1" d="M62.25,39.09V21.62h3V39.09Z" transform="translate(-4.67 -3.55)"/><path class="cls-1" d="M73.92,30.24h4.91v8.86H77.38l-.56-1.31a3.49,3.49,0,0,1-3,1.55c-2.37,0-4-1.69-4-4.48v-9a4.14,4.14,0,0,1,4.4-4.48c3,0,4.5,2.18,4.5,4.79v1.11H75.83c0-2.61-.53-3.29-1.72-3.29-.73,0-1.33.44-1.33,1.91v9c0,1.11.36,1.84,1.4,1.84,1.21,0,1.65-.68,1.65-2.42V32.61H73.92Z" transform="translate(-4.67 -3.55)"/><path class="cls-1" d="M83.09,39.09V21.62h3v7.12h3.19V21.62h3V39.09h-3V31.35H86.09v7.74Z" transform="translate(-4.67 -3.55)"/><path class="cls-1" d="M96.4,39.09V21.62h8v2.61h-5v4.5h3.87v2.61H99.41v5.13h5.37v2.61Z" transform="translate(-4.67 -3.55)"/><path class="cls-1" d="M111.36,39.09h-3V21.62h4.21c3.36,0,5.08,1.43,5.08,5.15,0,2.81-1.09,3.95-2.11,4.41l2.54,7.91h-3l-2.13-7.24a14.34,14.34,0,0,1-1.55.07Zm0-9.63h1.07c1.62,0,2.23-.6,2.23-2.69s-.6-2.69-2.23-2.69h-1.07Z" transform="translate(-4.67 -3.55)"/><path class="cls-1" d="M128.26,39.09V21.62h8v2.61h-5v4.5h3.87v2.61h-3.87v5.13h5.37v2.61Z" transform="translate(-4.67 -3.55)"/><path class="cls-1" d="M140.21,21.62h4.45c3.1,0,4.74,1.69,4.74,5.28v6.92c0,3.58-1.65,5.28-4.74,5.28h-4.45Zm3,15h1c1.6,0,2.15-.6,2.15-2.44V26.53c0-1.84-.56-2.44-2.15-2.44h-1Z" transform="translate(-4.67 -3.55)"/><path class="cls-1" d="M153.53,21.62h3V34.81c0,1.28.51,1.91,1.6,1.91s1.6-.63,1.6-1.91V21.62h3V34.69c0,3-1.74,4.65-4.6,4.65s-4.6-1.65-4.6-4.65Z" transform="translate(-4.67 -3.55)"/><path class="cls-1" d="M172.89,27.45V26.1c0-1.48-.68-2.11-1.45-2.11-1.21,0-1.6.63-1.6,1.94v8.86c0,1.31.39,1.94,1.6,1.94s1.45-.63,1.45-1.77V32.85h3v2a4.16,4.16,0,0,1-4.45,4.48c-3.15,0-4.6-2-4.6-4.48v-9c0-2.47,1.45-4.48,4.6-4.48s4.45,2.18,4.45,4.79v1.28Z" transform="translate(-4.67 -3.55)"/><path class="cls-1" d="M181.9,39.09H179l3.22-17.47h3.73l3.22,17.47h-2.9l-.53-3.87h-3.29Zm1-6.49h2.42l-1.19-7.5h0Z" transform="translate(-4.67 -3.55)"/><path class="cls-1" d="M193.85,24.23h-2.9V21.62h8.81v2.61h-2.9V39.09h-3Z" transform="translate(-4.67 -3.55)"/><path class="cls-1" d="M203.15,39.09V21.62h3V39.09Z" transform="translate(-4.67 -3.55)"/><path class="cls-1" d="M210.67,25.86c0-2.47,1.45-4.48,4.6-4.48s4.6,2,4.6,4.48v9c0,2.47-1.45,4.48-4.6,4.48s-4.6-2-4.6-4.48Zm3,8.93c0,1.31.39,1.94,1.6,1.94s1.6-.63,1.6-1.94V25.93c0-1.31-.39-1.94-1.6-1.94s-1.6.63-1.6,1.94Z" transform="translate(-4.67 -3.55)"/><path class="cls-1" d="M224,39.09V21.62h2.78l3.65,10h0v-10h2.71V39.09h-2.61l-3.82-10.91h0V39.09Z" transform="translate(-4.67 -3.55)"/><path class="cls-1" d="M254.68,31.28A25.74,25.74,0,0,1,253,35.85a3.4,3.4,0,0,0,1.67.82v2.66A5.08,5.08,0,0,1,251.31,38a4.51,4.51,0,0,1-3.44,1.33,3.91,3.91,0,0,1-4.19-4.09,7.79,7.79,0,0,1,2.3-4.94,13.23,13.23,0,0,1-1.38-4.82c0-2.37,1.28-4.11,3.8-4.11A3.36,3.36,0,0,1,252,25c0,2.18-1.65,3.8-3,5.3a19.7,19.7,0,0,0,2.18,3.56,22,22,0,0,0,1.07-3.24Zm-6.46,5.44a1.85,1.85,0,0,0,1.38-.51,17.33,17.33,0,0,1-2.4-3.51,3.38,3.38,0,0,0-.75,2.15A1.78,1.78,0,0,0,248.21,36.72Zm-.31-8.52A5.55,5.55,0,0,0,249.35,25c0-1.35-.39-1.89-1.09-1.89s-1.19.63-1.19,1.72A9.52,9.52,0,0,0,247.9,28.2Z" transform="translate(-4.67 -3.55)"/><path class="cls-1" d="M277.16,21.62V39.09h-2.61V25.44h0l-2.71,13.65h-1.45l-2.71-13.65h0V39.09H265V21.62h3.95L271,31.83h0l2.13-10.21Z" transform="translate(-4.67 -3.55)"/><path class="cls-1" d="M281.54,39.09V21.62h3V39.09Z" transform="translate(-4.67 -3.55)"/><path class="cls-1" d="M289.07,39.09V21.62h2.78l3.65,10h0v-10h2.71V39.09h-2.61l-3.82-10.91h0V39.09Z" transform="translate(-4.67 -3.55)"/><path class="cls-1" d="M302.8,39.09V21.62h3V39.09Z" transform="translate(-4.67 -3.55)"/><path class="cls-1" d="M315.79,25.93c-.12-1.5-.92-1.94-1.6-1.94-1,0-1.5.63-1.5,1.72,0,3,6.1,4.4,6.1,9.15,0,2.88-1.94,4.48-4.74,4.48s-4.38-2.23-4.5-4.84l2.86-.41c.12,1.77.82,2.64,1.79,2.64a1.54,1.54,0,0,0,1.74-1.6c0-3.46-6.1-4.38-6.1-9.39,0-2.78,1.69-4.36,4.65-4.36,2.44,0,3.9,1.77,4.16,4.24Z" transform="translate(-4.67 -3.55)"/><path class="cls-1" d="M324,24.23h-2.9V21.62h8.81v2.61H327V39.09h-3Z" transform="translate(-4.67 -3.55)"/><path class="cls-1" d="M335.91,39.09h-3V21.62h4.21c3.36,0,5.08,1.43,5.08,5.15,0,2.81-1.09,3.95-2.11,4.41l2.54,7.91h-3l-2.13-7.24a14.36,14.36,0,0,1-1.55.07Zm0-9.63H337c1.62,0,2.23-.6,2.23-2.69s-.61-2.69-2.23-2.69h-1.06Z" transform="translate(-4.67 -3.55)"/><path class="cls-1" d="M351.64,39.09h-3V31.83L345,21.62h3l2.11,6.66h0l2-6.66h3l-3.63,10.21Z" transform="translate(-4.67 -3.55)"/><path class="cls-1" d="M52.81,49.25C52.73,48,52.36,47,51.29,47s-1.73,1-1.73,4.1.56,4.1,1.73,4.1a1.37,1.37,0,0,0,1.52-1.53V52.31H51.5v-.89h2.36V56h-.67l-.13-.72a2.07,2.07,0,0,1-1.76.86c-1.71,0-2.78-1.32-2.78-5s1.07-5,2.78-5,2.43,1.56,2.56,3.12Z" transform="translate(-4.67 -3.55)"/><path class="cls-1" d="M56.37,52.63V53c0,1.71.39,2.27,1.3,2.27.74,0,1-.68,1.17-1.32l.91.11a2.23,2.23,0,0,1-2.22,2c-1.46,0-2.14-1.1-2.14-3.63s.67-3.63,2.14-3.63,2.14,1.32,2.14,3.33v.46Zm2.34-.81c0-1.5-.3-2.17-1.17-2.17-.7,0-1.15.51-1.17,2.17Z" transform="translate(-4.67 -3.55)"/><path class="cls-1" d="M61.44,49h.91v.77a2.76,2.76,0,0,1,1.58-.9c1,0,1.53.54,1.53,1.83V56h-1V50.81c0-.81-.24-1.15-.77-1.15a1.83,1.83,0,0,0-1.33.86V56h-1Z" transform="translate(-4.67 -3.55)"/><path class="cls-1" d="M68.2,52.63V53c0,1.71.39,2.27,1.3,2.27.74,0,1-.68,1.17-1.32l.91.11a2.23,2.23,0,0,1-2.22,2c-1.46,0-2.14-1.1-2.14-3.63s.67-3.63,2.14-3.63,2.14,1.32,2.14,3.33v.46Zm2.34-.81c0-1.5-.3-2.17-1.17-2.17-.7,0-1.15.51-1.17,2.17Z" transform="translate(-4.67 -3.55)"/><path class="cls-1" d="M73.19,49h1v.85h0a1.79,1.79,0,0,1,1.77-1v.91A1.85,1.85,0,0,0,74.16,51v5h-1Z" transform="translate(-4.67 -3.55)"/><path class="cls-1" d="M77.19,50.89a2.14,2.14,0,0,1,2.07-2,1.82,1.82,0,0,1,2,2v3.89A2.87,2.87,0,0,0,81.44,56h-1l-.12-.59a2.56,2.56,0,0,1-1.49.73A1.7,1.7,0,0,1,77,54.3c0-1.72,1.89-2.59,3.29-2.9v-.5c0-.77-.39-1.25-1-1.25s-1.1.74-1.21,1.37Zm3.1,1.32c-.89.27-2.32.91-2.32,2,0,.66.3,1.07,1,1.07a2,2,0,0,0,1.33-.72Z" transform="translate(-4.67 -3.55)"/><path class="cls-1" d="M83.65,46.27h1V56h-1Z" transform="translate(-4.67 -3.55)"/><path class="cls-1" d="M90.13,46.27h2.58A2.17,2.17,0,0,1,95,48.66a2.06,2.06,0,0,1-1.48,2.15v0a2.27,2.27,0,0,1,1.69,2.44c0,1.8-1,2.69-3.12,2.69h-2Zm1,4.16h.59c1.5,0,2.18-.46,2.18-1.77,0-1.1-.48-1.5-1.72-1.5h-1Zm0,4.65h1c1.26,0,1.93-.55,1.93-1.8s-.56-2-1.93-2h-1Z" transform="translate(-4.67 -3.55)"/><path class="cls-1" d="M98.89,48.85c1.46,0,2.13,1.1,2.13,3.63s-.67,3.63-2.13,3.63-2.13-1.1-2.13-3.63S97.42,48.85,98.89,48.85Zm0,6.45c.82,0,1.17-.51,1.17-2.82s-.35-2.82-1.17-2.82-1.17.51-1.17,2.82S98.07,55.29,98.89,55.29Z" transform="translate(-4.67 -3.55)"/><path class="cls-1" d="M102.66,50.89a2.14,2.14,0,0,1,2.07-2,1.82,1.82,0,0,1,2,2v3.89A2.87,2.87,0,0,0,106.9,56h-1l-.12-.59a2.56,2.56,0,0,1-1.49.73,1.7,1.7,0,0,1-1.81-1.8c0-1.72,1.89-2.59,3.29-2.9v-.5c0-.77-.39-1.25-1-1.25s-1.1.74-1.21,1.37Zm3.1,1.32c-.89.27-2.32.91-2.32,2,0,.66.3,1.07,1,1.07a2,2,0,0,0,1.33-.72Z" transform="translate(-4.67 -3.55)"/><path class="cls-1" d="M109,49h1v.85h0a1.79,1.79,0,0,1,1.77-1v.91A1.85,1.85,0,0,0,110,51v5h-1Z" transform="translate(-4.67 -3.55)"/><path class="cls-1" d="M116.29,55.29h0a1.69,1.69,0,0,1-1.44.81c-1.1,0-2-.94-2-3.63s.91-3.63,2-3.63a1.9,1.9,0,0,1,1.29.64V46.27h1v7.82a7.6,7.6,0,0,0,.16,1.88h-.91Zm-.17-5a1.61,1.61,0,0,0-1-.62c-.82,0-1.29.67-1.29,2.82s.51,2.82,1.32,2.82a1.51,1.51,0,0,0,1-.67Z" transform="translate(-4.67 -3.55)"/><path class="cls-1" d="M124.36,48.85c1.46,0,2.14,1.1,2.14,3.63s-.67,3.63-2.14,3.63-2.13-1.1-2.13-3.63S122.89,48.85,124.36,48.85Zm0,6.45c.82,0,1.17-.51,1.17-2.82s-.35-2.82-1.17-2.82-1.17.51-1.17,2.82S123.54,55.29,124.36,55.29Z" transform="translate(-4.67 -3.55)"/><path class="cls-1" d="M127.54,49h1.07V47.56c0-.94.38-1.42,1.42-1.42a4.38,4.38,0,0,1,.75.08V47a1.22,1.22,0,0,0-.52-.11.64.64,0,0,0-.69.74V49h1.13v.81h-1.13V56h-1V49.79h-1.07Z" transform="translate(-4.67 -3.55)"/><path class="cls-1" d="M136.59,46.27v4.19h2.85V46.27h1V56h-1V51.35h-2.85V56h-1v-9.7Z" transform="translate(-4.67 -3.55)"/><path class="cls-1" d="M142.7,46.27h1V47.4h-1Zm0,2.71h1v7h-1Z" transform="translate(-4.67 -3.55)"/><path class="cls-1" d="M150.47,49.73a1,1,0,0,0-.28,0,.84.84,0,0,0-.6.27,4,4,0,0,1,.21,1.34c0,1.75-.81,2.5-1.88,2.5-.21,0-.43-.05-.64-.05s-.48.19-.48.46c0,.5.79.52,1.69.71s1.91.54,1.91,1.68c0,.91-.89,1.64-2.36,1.64s-2.39-.59-2.39-1.5a1.52,1.52,0,0,1,1-1.4.94.94,0,0,1,.16-1.87,2.57,2.57,0,0,1-.83-2c0-1.67.81-2.63,2-2.63a1.46,1.46,0,0,1,1.28.64,1.27,1.27,0,0,1,1.18-.64Zm-3,5.85c-.56.24-.94.56-.94,1,0,.58.48,1,1.53,1s1.45-.43,1.45-1S148.3,55.78,147.46,55.59Zm.43-2.5c.56,0,1-.43,1-1.76s-.46-1.76-1-1.76-1,.43-1,1.76S147.33,53.09,147.89,53.09Z" transform="translate(-4.67 -3.55)"/><path class="cls-1" d="M152.24,46.27h1v3.48a2.5,2.5,0,0,1,1.53-.9c1,0,1.53.54,1.53,1.83V56h-1V50.81c0-.81-.24-1.15-.77-1.15a1.83,1.83,0,0,0-1.33.86V56h-1Z" transform="translate(-4.67 -3.55)"/><path class="cls-1" d="M159,52.63V53c0,1.71.39,2.27,1.3,2.27.74,0,1-.68,1.17-1.32l.91.11a2.23,2.23,0,0,1-2.22,2c-1.46,0-2.13-1.1-2.13-3.63s.67-3.63,2.13-3.63,2.14,1.32,2.14,3.33v.46Zm2.34-.81c0-1.5-.3-2.17-1.17-2.17-.7,0-1.15.51-1.17,2.17Z" transform="translate(-4.67 -3.55)"/><path class="cls-1" d="M164,49h1v.85h0a1.79,1.79,0,0,1,1.77-1v.91A1.85,1.85,0,0,0,165,51v5h-1Z" transform="translate(-4.67 -3.55)"/><path class="cls-1" d="M175.78,46.27v.89h-3.38v3.3h2.5v.89h-2.5v3.73h3.54V56h-4.59v-9.7Z" transform="translate(-4.67 -3.55)"/><path class="cls-1" d="M180.87,55.29h0a1.69,1.69,0,0,1-1.44.81c-1.1,0-2-.94-2-3.63s.91-3.63,2-3.63a1.9,1.9,0,0,1,1.29.64V46.27h1v7.82a7.61,7.61,0,0,0,.16,1.88h-.91Zm-.17-5a1.61,1.61,0,0,0-1-.62c-.82,0-1.29.67-1.29,2.82s.51,2.82,1.32,2.82a1.52,1.52,0,0,0,1-.67Z" transform="translate(-4.67 -3.55)"/><path class="cls-1" d="M188,56h-.91V55.2a2.76,2.76,0,0,1-1.58.9c-1,0-1.53-.54-1.53-1.83V49h1v5.16c0,.81.24,1.15.77,1.15a1.83,1.83,0,0,0,1.33-.86V49h1Z" transform="translate(-4.67 -3.55)"/><path class="cls-1" d="M193,51.05c-.09-1-.51-1.4-1.1-1.4-.82,0-1.17.51-1.17,2.82s.35,2.82,1.17,2.82c.62,0,1-.32,1.13-1.53H194c-.16,1.37-.81,2.34-2.07,2.34-1.46,0-2.13-1.1-2.13-3.63s.67-3.63,2.13-3.63c1.26,0,1.85.83,2,2.2Z" transform="translate(-4.67 -3.55)"/><path class="cls-1" d="M195.69,50.89a2.14,2.14,0,0,1,2.07-2,1.82,1.82,0,0,1,2,2v3.89a2.88,2.88,0,0,0,.17,1.24h-1l-.12-.59a2.56,2.56,0,0,1-1.49.73,1.7,1.7,0,0,1-1.81-1.8c0-1.72,1.89-2.59,3.29-2.9v-.5c0-.77-.39-1.25-1-1.25s-1.1.74-1.21,1.37Zm3.1,1.32c-.89.27-2.32.91-2.32,2,0,.66.3,1.07,1,1.07a2,2,0,0,0,1.33-.72Z" transform="translate(-4.67 -3.55)"/><path class="cls-1" d="M201.25,49h.94V46.65h1V49h1.29v.81h-1.29v4.89a.64.64,0,0,0,.7.7,2.15,2.15,0,0,0,.59-.13V56a2.87,2.87,0,0,1-.91.13c-.91,0-1.34-.43-1.34-1.5V49.79h-.94Z" transform="translate(-4.67 -3.55)"/><path class="cls-1" d="M206.2,46.27h1V47.4h-1Zm0,2.71h1v7h-1Z" transform="translate(-4.67 -3.55)"/><path class="cls-1" d="M211.1,48.85c1.46,0,2.14,1.1,2.14,3.63s-.67,3.63-2.14,3.63S209,55,209,52.47,209.64,48.85,211.1,48.85Zm0,6.45c.82,0,1.17-.51,1.17-2.82s-.35-2.82-1.17-2.82-1.17.51-1.17,2.82S210.28,55.29,211.1,55.29Z" transform="translate(-4.67 -3.55)"/><path class="cls-1" d="M215,49h.91v.77a2.76,2.76,0,0,1,1.58-.9c1,0,1.53.54,1.53,1.83V56h-1V50.81c0-.81-.24-1.15-.77-1.15a1.83,1.83,0,0,0-1.33.86V56h-1Z" transform="translate(-4.67 -3.55)"/><path class="cls-1" d="M224.46,50.89a2.14,2.14,0,0,1,2.07-2,1.82,1.82,0,0,1,2,2v3.89A2.87,2.87,0,0,0,228.7,56h-1l-.12-.59a2.55,2.55,0,0,1-1.49.73,1.7,1.7,0,0,1-1.81-1.8c0-1.72,1.89-2.59,3.29-2.9v-.5c0-.77-.39-1.25-1-1.25s-1.1.74-1.21,1.37Zm3.1,1.32c-.89.27-2.32.91-2.32,2,0,.66.29,1.07,1,1.07a2,2,0,0,0,1.33-.72Z" transform="translate(-4.67 -3.55)"/><path class="cls-1" d="M230.88,49h.91v.77a2.76,2.76,0,0,1,1.58-.9c1,0,1.53.54,1.53,1.83V56h-1V50.81c0-.81-.24-1.15-.77-1.15a1.83,1.83,0,0,0-1.33.86V56h-1Z" transform="translate(-4.67 -3.55)"/><path class="cls-1" d="M240.31,55.29h0a1.69,1.69,0,0,1-1.44.81c-1.1,0-2-.94-2-3.63s.91-3.63,2-3.63a1.9,1.9,0,0,1,1.29.64V46.27h1v7.82a7.58,7.58,0,0,0,.16,1.88h-.91Zm-.17-5a1.61,1.61,0,0,0-1-.62c-.82,0-1.29.67-1.29,2.82s.51,2.82,1.32,2.82a1.51,1.51,0,0,0,1-.67Z" transform="translate(-4.67 -3.55)"/><path class="cls-1" d="M248.19,46.27l1.69,7.33h0l1.65-7.33h1.67V56h-1V47.08h0l-2,8.89h-.68l-2-8.89h0V56h-1v-9.7Z" transform="translate(-4.67 -3.55)"/><path class="cls-1" d="M255.31,46.27h1V47.4h-1Zm0,2.71h1v7h-1Z" transform="translate(-4.67 -3.55)"/><path class="cls-1" d="M258.57,49h.91v.77a2.76,2.76,0,0,1,1.58-.9c1,0,1.53.54,1.53,1.83V56h-1V50.81c0-.81-.24-1.15-.77-1.15a1.83,1.83,0,0,0-1.33.86V56h-1Z" transform="translate(-4.67 -3.55)"/><path class="cls-1" d="M264.9,46.27h1V47.4h-1Zm0,2.71h1v7h-1Z" transform="translate(-4.67 -3.55)"/><path class="cls-1" d="M270.87,50.75c-.17-.6-.43-1.1-1.21-1.1a.78.78,0,0,0-.78.83c0,1.42,3,1.5,3,3.68a1.87,1.87,0,0,1-1.91,1.93,2.16,2.16,0,0,1-2.23-1.85l.89-.19c.2.62.56,1.23,1.28,1.23a1.06,1.06,0,0,0,1-1.06c0-1.61-3-1.64-3-3.69a1.73,1.73,0,0,1,1.81-1.69,1.88,1.88,0,0,1,1.95,1.67Z" transform="translate(-4.67 -3.55)"/><path class="cls-1" d="M272.84,49h.94V46.65h1V49H276v.81h-1.29v4.89a.64.64,0,0,0,.7.7,2.13,2.13,0,0,0,.59-.13V56a2.86,2.86,0,0,1-.91.13c-.91,0-1.34-.43-1.34-1.5V49.79h-.94Z" transform="translate(-4.67 -3.55)"/><path class="cls-1" d="M277.68,49h1v.85h0a1.79,1.79,0,0,1,1.77-1v.91a1.85,1.85,0,0,0-1.8,1.23v5h-1Z" transform="translate(-4.67 -3.55)"/><path class="cls-1" d="M281.87,49l1.32,5.34h0L284.28,49h1l-1.6,6.83c-.36,1.53-1,2.43-2.2,2.43H281v-.81h.29c.77,0,1.26-.55,1.45-1.53L280.87,49Z" transform="translate(-4.67 -3.55)"/><path class="cls-1" d="M49.72,71.15H48.52V70.07h3.62v1.07H51v6.11H49.72Z" transform="translate(-4.67 -3.55)"/><path class="cls-1" d="M53.12,77.26V70.07h1.23V73h1.31V70.07H56.9v7.18H55.66V74.07H54.35v3.18Z" transform="translate(-4.67 -3.55)"/><path class="cls-1" d="M58.33,77.26V70.07h3.3v1.07H59.56V73h1.59v1.07H59.56v2.11h2.21v1.07Z" transform="translate(-4.67 -3.55)"/><path class="cls-1" d="M65.45,70.07h1.23V75.5c0,.53.21.79.66.79S68,76,68,75.5V70.07h1.23v5.37a1.89,1.89,0,1,1-3.78,0Z" transform="translate(-4.67 -3.55)"/><path class="cls-1" d="M70.66,77.26V70.07H71.8l1.5,4.11h0V70.07h1.11v7.18H73.36l-1.57-4.49h0v4.49Z" transform="translate(-4.67 -3.55)"/><path class="cls-1" d="M76,77.26V70.07h1.23v7.18Z" transform="translate(-4.67 -3.55)"/><path class="cls-1" d="M79.6,71.15H78.4V70.07H82v1.07H80.83v6.11H79.6Z" transform="translate(-4.67 -3.55)"/><path class="cls-1" d="M83,77.26V70.07h3.3v1.07H84.23V73h1.59v1.07H84.23v2.11h2.21v1.07Z" transform="translate(-4.67 -3.55)"/><path class="cls-1" d="M87.66,70.07h1.83c1.27,0,1.95.7,1.95,2.17v2.84c0,1.47-.68,2.17-1.95,2.17H87.66Zm1.23,6.17h.43c.66,0,.89-.25.89-1V72.09c0-.76-.23-1-.89-1H88.9Z" transform="translate(-4.67 -3.55)"/><path class="cls-1" d="M100.28,70.07v7.18H99.21V71.65h0l-1.11,5.61h-.6l-1.11-5.61h0v5.61H95.27V70.07h1.62l.88,4.2h0l.88-4.2Z" transform="translate(-4.67 -3.55)"/><path class="cls-1" d="M101.66,77.26V70.07H105v1.07H102.9V73h1.59v1.07H102.9v2.11h2.21v1.07Z" transform="translate(-4.67 -3.55)"/><path class="cls-1" d="M107,71.15h-1.19V70.07h3.62v1.07h-1.19v6.11H107Z" transform="translate(-4.67 -3.55)"/><path class="cls-1" d="M110.44,77.26V70.07h1.23V73H113V70.07h1.23v7.18H113V74.07h-1.31v3.18Z" transform="translate(-4.67 -3.55)"/><path class="cls-1" d="M115.65,71.81a1.89,1.89,0,0,1,3.78,0v3.7a1.89,1.89,0,0,1-3.78,0Zm1.23,3.67c0,.54.16.8.66.8s.66-.26.66-.8V71.85c0-.54-.16-.8-.66-.8s-.66.26-.66.8Z" transform="translate(-4.67 -3.55)"/><path class="cls-1" d="M120.87,70.07h1.83c1.27,0,2,.7,2,2.17v2.84c0,1.47-.68,2.17-2,2.17h-1.83Zm1.23,6.17h.43c.66,0,.88-.25.88-1V72.09c0-.76-.23-1-.88-1h-.43Z" transform="translate(-4.67 -3.55)"/><path class="cls-1" d="M126.25,77.26V70.07h1.23v7.18Z" transform="translate(-4.67 -3.55)"/><path class="cls-1" d="M131.34,71.85c0-.62-.38-.8-.66-.8s-.62.26-.62.71c0,1.22,2.51,1.81,2.51,3.76a1.76,1.76,0,0,1-2,1.84,1.89,1.89,0,0,1-1.85-2l1.17-.17c0,.73.34,1.08.74,1.08a.63.63,0,0,0,.72-.66c0-1.42-2.51-1.8-2.51-3.86A1.68,1.68,0,0,1,130.8,70a1.72,1.72,0,0,1,1.71,1.74Z" transform="translate(-4.67 -3.55)"/><path class="cls-1" d="M134.47,71.15h-1.19V70.07h3.62v1.07H135.7v6.11h-1.23Z" transform="translate(-4.67 -3.55)"/><path class="cls-1" d="M142.81,72.47v-.56c0-.61-.28-.87-.6-.87-.5,0-.66.26-.66.8v3.64c0,.54.16.8.66.8s.6-.26.6-.73v-.87H144v.83a1.71,1.71,0,0,1-1.83,1.84,1.73,1.73,0,0,1-1.89-1.84v-3.7A1.73,1.73,0,0,1,142.22,70a1.78,1.78,0,0,1,1.83,2v.53Z" transform="translate(-4.67 -3.55)"/><path class="cls-1" d="M145.55,77.26V70.07h1.23V73h1.31V70.07h1.23v7.18h-1.23V74.07h-1.31v3.18Z" transform="translate(-4.67 -3.55)"/><path class="cls-1" d="M150.76,70.07H152V75.5c0,.53.21.79.66.79s.66-.26.66-.79V70.07h1.23v5.37a1.89,1.89,0,1,1-3.78,0Z" transform="translate(-4.67 -3.55)"/><path class="cls-1" d="M157.2,77.26H156V70.07h1.73c1.38,0,2.09.59,2.09,2.12,0,1.15-.45,1.62-.87,1.81l1,3.25h-1.25l-.88-3a6,6,0,0,1-.64,0Zm0-4h.44c.67,0,.92-.25.92-1.1s-.25-1.1-.92-1.1h-.44Z" transform="translate(-4.67 -3.55)"/><path class="cls-1" d="M163.67,72.47v-.56c0-.61-.28-.87-.6-.87-.5,0-.66.26-.66.8v3.64c0,.54.16.8.66.8s.6-.26.6-.73v-.87h1.23v.83a1.71,1.71,0,0,1-1.83,1.84,1.73,1.73,0,0,1-1.89-1.84v-3.7A1.73,1.73,0,0,1,163.08,70a1.78,1.78,0,0,1,1.83,2v.53Z" transform="translate(-4.67 -3.55)"/><path class="cls-1" d="M166.4,77.26V70.07h1.23V73h1.31V70.07h1.23v7.18h-1.23V74.07h-1.31v3.18Z" transform="translate(-4.67 -3.55)"/><path class="cls-2" d="M20.31,45.17c-.35-2.9-1.67-4.22-4.74-6-5.15-2.95-4.39-6.59-4.39-6.59,0-2.19,1.84-3.69,5.1-6.5A9.57,9.57,0,0,0,18.63,23l.7-1.88a9.82,9.82,0,0,0,.37-2.4V3.56c0-.1-.2.24-.2.24a16.22,16.22,0,0,1-.77,4.37C17.5,12.57,12.31,16,11,17.58,8.17,21,6.65,24.2,7.39,29.79c.35,2.63,1.76,6.15,4.57,8.08,1.72,1.18,5.62,3,6.32,3.78s1.23,2.81.88,2S17.67,40.86,13,39.37,7,34,5.9,30.23a30,30,0,0,1-.7-8.61L5,21.83s-.29,13.85-.29,15.25a14.73,14.73,0,0,0,1.5,6.5c3.06,5.68,5.45,4.83,9.66,6.33,3.72,1.32,3.78,3.43,4,4.75a45.49,45.49,0,0,1,.26,5.27l.44-.41V50.18a30.36,30.36,0,0,0-.27-5" transform="translate(-4.67 -3.55)"/><polygon class="cls-1" points="29.9 18.03 18.44 18.03 18.44 3.78 17.41 4.77 17.41 18.03 6.91 18.03 5.92 19.05 17.41 19.05 17.41 53.32 18.44 52.39 18.44 19.05 28.95 19.05 29.9 18.03"/><path class="cls-1" d="M28.55,55.69a1.37,1.37,0,1,1,1.33-1.37,1.33,1.33,0,0,1-1.33,1.37m0,.26a1.63,1.63,0,1,0-1.65-1.64A1.63,1.63,0,0,0,28.55,56m-.33-2.33h.39c.3,0,.42.09.42.28s-.14.3-.49.3h-.32Zm0,.83h.29l.51.84h.35l-.51-.84a.49.49,0,0,0,.46-.52q0-.54-.66-.54h-.73v1.91h.29Z" transform="translate(-4.67 -3.55)"/></svg>