<?xml version="1.0" encoding="utf-8"?>
<!-- Generator: Adobe Illustrator 23.0.3, SVG Export Plug-In . SVG Version: 6.00 Build 0)  -->
<svg version="1.1" id="Layer_1" xmlns="http://www.w3.org/2000/svg" xmlns:xlink="http://www.w3.org/1999/xlink" x="0px" y="0px"
	 viewBox="0 0 41 45" style="enable-background:new 0 0 41 45;" xml:space="preserve">
<style type="text/css">
	.st0{fill:#FFFFFF;}
	.st1{fill:#EA0029;}
</style>
<g>
	<g>
		<path class="st0" d="M31,30h-3.7l-7.2,8l-1.7-8H14C8.5,30,4,25.5,4,20V10C4,4.5,8.5,0,14,0h17c5.5,0,10,4.5,10,10v10
			C41,25.5,36.5,30,31,30z"/>
	</g>
	<path class="st1" d="M29,35.9h-3.7L18.2,45l-1.7-9.1H12c-5.5,0-10-5.1-10-11.3V13.3C2,7.1,6.5,2,12,2h17c5.5,0,10,5.1,10,11.3v11.3
		C39,30.9,34.5,35.9,29,35.9z"/>
	<g>
		<path class="st0" d="M27,34h-3.7l-7.2,8l-1.7-8H10C4.5,34,0,29.5,0,24V14C0,8.5,4.5,4,10,4h17c5.5,0,10,4.5,10,10v10
			C37,29.5,32.5,34,27,34z"/>
	</g>
</g>
</svg>
